;TYPE=PLATED
;Layer: PTH_Through
;EasyEDA Pro Client v2.2.32.3, 2024-12-01 19:29:51
;Gerber Generator version 0.3
M48
METRIC,LZ,000.00000
;Hole size 1 = 0.30500 METRIC
T01C0.30500
%
G05
G90
T01
X17.19199Y-12.22108
X17.69999Y-11.60513
X17.19199Y-18.03692
X19.98599Y-21.19313
X20.23999Y-19.77708
X19.98599Y-18.61503
X15.15999Y-20.72297
X18.20799Y-25.22512
X12.27201Y-18.43697
X14.30401Y-20.57692
X12.27201Y-12.22108
X13.54201Y-20.41699
X11.00201Y-17.45298
X11.76401Y-17.59902
X6.17601Y-15.05293
X12.27201Y-19.23707
X8.55599Y-24.31707
X17.19199Y-15.63713
X17.69999Y-14.98308
X19.98599Y-14.07503
X6.17601Y-13.89113
X19.98599Y-12.91298
X9.73201Y-17.77708
X10.24001Y-22.32292
X8.80999Y-23.59292
X14.55801Y-11.57313
X11.00201Y-14.62113
X5.41401Y-20.20913
X15.41399Y-11.61097
X19.98599Y-11.49693
X8.71601Y-17.88503
X13.18996Y-10.99707
M30