G04 Layer: TopLayer*
G04 EasyEDA Pro v2.2.32.3, 2024-12-01 19:29:51*
G04 Gerber Generator version 0.3*
G04 Scale: 100 percent, Rotated: No, Reflected: No*
G04 Dimensions in millimeters*
G04 Leading zeros omitted, absolute positions, 3 integers and 5 decimals*
%FSLAX35Y35*%
%MOMM*%
%ADD10R,1.5X0.9*%
%ADD11R,0.9X1.5*%
%ADD12R,1.5X0.9*%
%ADD13R,0.9X0.9*%
%ADD14C,0.61*%
%ADD15C,0.18*%
%ADD16C,0.254*%
G75*


G04 Pad Start*
G54D10*
G01X140995Y-761505D03*
G01X140995Y-888505D03*
G01X140995Y-1015505D03*
G01X140995Y-1142505D03*
G01X140995Y-1269505D03*
G01X140995Y-1396505D03*
G01X140995Y-1523505D03*
G01X140995Y-1650505D03*
G01X140995Y-1777505D03*
G01X140995Y-1904505D03*
G01X140995Y-2031505D03*
G01X140995Y-2158505D03*
G01X140995Y-2285505D03*
G01X140995Y-2412505D03*
G54D11*
G01X317500Y-2540495D03*
G01X444500Y-2540495D03*
G01X571500Y-2540495D03*
G01X698500Y-2540495D03*
G01X825500Y-2540495D03*
G01X952500Y-2540495D03*
G01X1079500Y-2540495D03*
G01X1206500Y-2540495D03*
G01X1333500Y-2540495D03*
G01X1460500Y-2540495D03*
G01X1587500Y-2540495D03*
G01X1714500Y-2537498D03*
G54D12*
G01X1891005Y-2412505D03*
G01X1891005Y-2285505D03*
G01X1891005Y-2158505D03*
G01X1891005Y-2031505D03*
G01X1891005Y-1904505D03*
G01X1891005Y-1777505D03*
G01X1891005Y-1650505D03*
G01X1891005Y-1523505D03*
G01X1891005Y-1396505D03*
G01X1891005Y-1269505D03*
G01X1891005Y-1142505D03*
G01X1891005Y-1015505D03*
G01X1891005Y-888505D03*
G01X1891005Y-761505D03*
G54D13*
G01X1005992Y-1673517D03*
G01X865988Y-1673517D03*
G01X725983Y-1673517D03*
G01X725983Y-1393507D03*
G01X865988Y-1393507D03*
G01X1005992Y-1393507D03*
G01X1005992Y-1533512D03*
G01X725983Y-1533512D03*
G01X865988Y-1533512D03*
G04 Pad End*

G04 Via Start*
G54D14*
G01X1719199Y-1222108D03*
G01X1769999Y-1160513D03*
G01X1719199Y-1803692D03*
G01X1998599Y-2119312D03*
G01X2023999Y-1977707D03*
G01X1998599Y-1861502D03*
G01X1515999Y-2072297D03*
G01X1820799Y-2522512D03*
G01X1227201Y-1843697D03*
G01X1430401Y-2057692D03*
G01X1227201Y-1222108D03*
G01X1354201Y-2041699D03*
G01X1100201Y-1745297D03*
G01X1176401Y-1759902D03*
G01X617601Y-1505293D03*
G01X1227201Y-1923707D03*
G01X855599Y-2431707D03*
G01X1719199Y-1563713D03*
G01X1769999Y-1498308D03*
G01X1998599Y-1407503D03*
G01X617601Y-1389113D03*
G01X1998599Y-1291298D03*
G01X973201Y-1777708D03*
G01X1024001Y-2232292D03*
G01X880999Y-2359292D03*
G01X1455801Y-1157313D03*
G01X1100201Y-1462113D03*
G01X541401Y-2020913D03*
G01X1541399Y-1161097D03*
G01X1998599Y-1149693D03*
G01X871601Y-1788503D03*
G01X1318996Y-1099707D03*
G04 Via End*

G04 Track Start*
G54D15*
G01X1719199Y-1222108D02*
G01X1693799Y-1196708D01*
G01X1693799Y-1044308D01*
G01X1849603Y-888505D01*
G01X1891005Y-888505D01*
G01X1769999Y-1160513D02*
G01X1769999Y-1084313D01*
G01X1838808Y-1015505D01*
G01X1891005Y-1015505D01*
G01X1719199Y-1803692D02*
G01X1719199Y-2159292D01*
G01X1809002Y-2249095D01*
G01X1854595Y-2249095D01*
G01X1891005Y-2285505D01*
G01X1998599Y-2119312D02*
G01X1930197Y-2119312D01*
G01X1891005Y-2158505D01*
G01X2023999Y-1977707D02*
G01X1944802Y-1977707D01*
G01X1891005Y-2031505D01*
G01X1998599Y-1861502D02*
G01X1934007Y-1861502D01*
G01X1891005Y-1904505D01*
G01X1515999Y-2072297D02*
G01X1856207Y-2412505D01*
G01X1891005Y-2412505D01*
G01X1820799Y-2522512D02*
G01X1820799Y-2591295D01*
G01X1769999Y-2642095D01*
G01X766291Y-2642095D01*
G01X753999Y-2629804D01*
G01X753999Y-2595994D01*
G01X698500Y-2540495D01*
G01X1227201Y-1843697D02*
G01X1303401Y-1919897D01*
G01X1303401Y-1945297D01*
G01X1213598Y-2035100D01*
G01X1213598Y-2533397D01*
G01X1206500Y-2540495D01*
G01X1430401Y-2057692D02*
G01X1340598Y-2147495D01*
G01X1340598Y-2533397D01*
G01X1333500Y-2540495D01*
G01X1227201Y-1222108D02*
G01X1047596Y-1042503D01*
G01X167994Y-1042503D01*
G01X140995Y-1015505D01*
G01X1354201Y-2041699D02*
G01X1354201Y-1843926D01*
G01X1183792Y-1673517D01*
G01X1005992Y-1673517D01*
G54D16*
G01X1005992Y-1673517D02*
G01X1005992Y-1533512D01*
G01X1005992Y-1673517D02*
G01X865988Y-1673517D01*
G01X1005992Y-1533512D02*
G01X865988Y-1533512D01*
G01X865988Y-1673517D02*
G01X725983Y-1673517D01*
G01X725983Y-1533512D01*
G01X725983Y-1393507D01*
G01X865988Y-1533512D02*
G01X865988Y-1393507D01*
G01X1005992Y-1393507D01*
G01X1158392Y-1393507D01*
G01X1386992Y-1164907D01*
G01X1386992Y-1063307D01*
G01X1117585Y-793900D01*
G01X173391Y-793900D01*
G01X140995Y-761505D01*
G01X1386992Y-1063307D02*
G01X1656400Y-793900D01*
G01X1858609Y-793900D01*
G01X1891005Y-761505D01*
G54D15*
G01X1100201Y-1745297D02*
G01X561386Y-2284113D01*
G01X142387Y-2284113D01*
G01X140995Y-2285505D01*
G01X1176401Y-1759902D02*
G01X547783Y-2388520D01*
G01X164980Y-2388520D01*
G01X140995Y-2412505D01*
G01X617601Y-1505293D02*
G01X159207Y-1505293D01*
G01X140995Y-1523505D01*
G01X1227201Y-1923707D02*
G01X1079500Y-2071408D01*
G01X1079500Y-2540495D01*
G01X855599Y-2431707D02*
G01X855599Y-2510396D01*
G01X825500Y-2540495D01*
G01X1719199Y-1563713D02*
G01X1805991Y-1650505D01*
G01X1891005Y-1650505D01*
G01X1769999Y-1498308D02*
G01X1865808Y-1498308D01*
G01X1891005Y-1523505D01*
G01X1998599Y-1407503D02*
G01X1902003Y-1407503D01*
G01X1891005Y-1396505D01*
G01X617601Y-1389113D02*
G01X148387Y-1389113D01*
G01X140995Y-1396505D01*
G01X1998599Y-1291298D02*
G01X1912798Y-1291298D01*
G01X1891005Y-1269505D01*
G01X973201Y-1777708D02*
G01X795401Y-1955508D01*
G01X414401Y-1955508D01*
G01X338404Y-2031505D01*
G01X140995Y-2031505D01*
G01X1024001Y-2232292D02*
G01X952500Y-2303793D01*
G01X952500Y-2540495D01*
G01X880999Y-2359292D02*
G01X703199Y-2359292D01*
G01X613396Y-2449094D01*
G01X613396Y-2498599D01*
G01X571500Y-2540495D01*
G01X1455801Y-1157313D02*
G01X1151001Y-1462113D01*
G01X1100201Y-1462113D01*
G01X541401Y-2020913D02*
G01X451598Y-2110715D01*
G01X188785Y-2110715D01*
G01X140995Y-2158505D01*
G01X1541399Y-1161097D02*
G01X1541399Y-1491297D01*
G01X1810807Y-1760705D01*
G01X1874205Y-1760705D01*
G01X1891005Y-1777505D01*
G01X1998599Y-1149693D02*
G01X1898193Y-1149693D01*
G01X1891005Y-1142505D01*
G01X871601Y-1788503D02*
G01X781798Y-1878305D01*
G01X167195Y-1878305D01*
G01X140995Y-1904505D01*
G01X1318996Y-1099707D02*
G01X1139390Y-920102D01*
G01X172592Y-920102D01*
G01X140995Y-888505D01*
G04 Track End*

M02*

