G04 Layer: TopPasteMaskLayer*
G04 EasyEDA Pro v2.2.32.3, 2024-12-01 19:29:51*
G04 Gerber Generator version 0.3*
G04 Scale: 100 percent, Rotated: No, Reflected: No*
G04 Dimensions in millimeters*
G04 Leading zeros omitted, absolute positions, 3 integers and 5 decimals*
%FSLAX35Y35*%
%MOMM*%
%ADD10R,1.5X0.9*%
%ADD11R,0.9X1.5*%
%ADD12R,1.5X0.9*%
%ADD13R,0.9X0.9*%
G75*


G04 Pad Start*
G54D10*
G01X140995Y-761505D03*
G01X140995Y-888505D03*
G01X140995Y-1015505D03*
G01X140995Y-1142505D03*
G01X140995Y-1269505D03*
G01X140995Y-1396505D03*
G01X140995Y-1523505D03*
G01X140995Y-1650505D03*
G01X140995Y-1777505D03*
G01X140995Y-1904505D03*
G01X140995Y-2031505D03*
G01X140995Y-2158505D03*
G01X140995Y-2285505D03*
G01X140995Y-2412505D03*
G54D11*
G01X317500Y-2540495D03*
G01X444500Y-2540495D03*
G01X571500Y-2540495D03*
G01X698500Y-2540495D03*
G01X825500Y-2540495D03*
G01X952500Y-2540495D03*
G01X1079500Y-2540495D03*
G01X1206500Y-2540495D03*
G01X1333500Y-2540495D03*
G01X1460500Y-2540495D03*
G01X1587500Y-2540495D03*
G01X1714500Y-2537498D03*
G54D12*
G01X1891005Y-2412505D03*
G01X1891005Y-2285505D03*
G01X1891005Y-2158505D03*
G01X1891005Y-2031505D03*
G01X1891005Y-1904505D03*
G01X1891005Y-1777505D03*
G01X1891005Y-1650505D03*
G01X1891005Y-1523505D03*
G01X1891005Y-1396505D03*
G01X1891005Y-1269505D03*
G01X1891005Y-1142505D03*
G01X1891005Y-1015505D03*
G01X1891005Y-888505D03*
G01X1891005Y-761505D03*
G54D13*
G01X1005992Y-1673517D03*
G01X865988Y-1673517D03*
G01X725983Y-1673517D03*
G01X725983Y-1393507D03*
G01X865988Y-1393507D03*
G01X1005992Y-1393507D03*
G01X1005992Y-1533512D03*
G01X725983Y-1533512D03*
G01X865988Y-1533512D03*
G04 Pad End*

M02*

