G04 Layer: TopSilkscreenLayer*
G04 EasyEDA Pro v2.2.32.3, 2024-12-01 19:29:51*
G04 Gerber Generator version 0.3*
G04 Scale: 100 percent, Rotated: No, Reflected: No*
G04 Dimensions in millimeters*
G04 Leading zeros omitted, absolute positions, 3 integers and 5 decimals*
%FSLAX35Y35*%
%MOMM*%
%ADD10C,0.1524*%
%ADD11C,0.254*%
G75*


G04 Text Start*
G54D10*
G01X73616Y108130D02*
G01X73616Y61648D01*
G01X76664Y52504D01*
G01X83014Y46154D01*
G01X92158Y43106D01*
G01X98508Y43106D01*
G01X107652Y46154D01*
G01X113748Y52504D01*
G01X117050Y61648D01*
G01X117050Y108130D01*
G01X153372Y108130D02*
G01X187408Y108130D01*
G01X168866Y83492D01*
G01X178010Y83492D01*
G01X184360Y80444D01*
G01X187408Y77142D01*
G01X190456Y67998D01*
G01X190456Y61648D01*
G01X187408Y52504D01*
G01X181312Y46154D01*
G01X171914Y43106D01*
G01X162516Y43106D01*
G01X153372Y46154D01*
G01X150324Y49456D01*
G01X147276Y55552D01*
G04 Text End*

G04 PolygonModel Start*
G54D11*
G01X1745717Y-615465D02*
G01X1745717Y-127005D01*
G01X1745717Y-127005D02*
G01X1522197Y-127005D01*
G01X1542517Y-615465D02*
G01X1542517Y-127005D01*
G01X1542517Y-127005D02*
G01X1257300Y-127005D01*
G01X1257300Y-127005D02*
G01X1257300Y-342905D01*
G01X1257300Y-342905D02*
G01X1003300Y-342905D01*
G01X1003300Y-342905D02*
G01X1003300Y-127005D01*
G01X1003300Y-127005D02*
G01X749300Y-127005D01*
G01X749300Y-127005D02*
G01X749300Y-342905D01*
G01X749300Y-342905D02*
G01X520700Y-342905D01*
G01X520700Y-342905D02*
G01X520700Y-127005D01*
G01X520700Y-127005D02*
G01X292100Y-127005D01*
G01X292100Y-127005D02*
G01X292100Y-495305D01*
G01X115999Y-615465D02*
G01X1917700Y-615465D01*
G01X1917700Y-693390D02*
G01X1917700Y-12705D01*
G01X1782615Y-2565405D02*
G01X1917700Y-2565405D01*
G01X1917700Y-2565405D02*
G01X1917700Y-2480620D01*
G01X115999Y-2480620D02*
G01X115999Y-2565405D01*
G01X115999Y-2565405D02*
G01X249385Y-2565405D01*
G01X115999Y-11504D02*
G01X115999Y-693390D01*
G01X1916001Y-11504D02*
G01X115999Y-11504D01*
G36*
G01X263144Y-741002D02*
G02X368859Y-741002I52857J0D01*
G02X263144Y-741002I-52857J0D01*
G37*

M02*

