G04 Layer: BottomLayer*
G04 EasyEDA Pro v2.2.32.3, 2024-12-01 19:29:51*
G04 Gerber Generator version 0.3*
G04 Scale: 100 percent, Rotated: No, Reflected: No*
G04 Dimensions in millimeters*
G04 Leading zeros omitted, absolute positions, 3 integers and 5 decimals*
%FSLAX35Y35*%
%MOMM*%
%ADD10R,1.4X0.2*%
%ADD11C,0.61*%
%ADD12C,0.18*%
G75*


G04 Pad Start*
G54D10*
G01X1592199Y-1992897D03*
G01X1354201Y-1992897D03*
G01X1592199Y-1952892D03*
G01X1354201Y-1952892D03*
G01X1592199Y-1912912D03*
G01X1354201Y-1912912D03*
G01X1592199Y-1872907D03*
G01X1354201Y-1872907D03*
G01X1592199Y-1832902D03*
G01X1354201Y-1832902D03*
G01X1592199Y-1792897D03*
G01X1354201Y-1792897D03*
G01X1592199Y-1752892D03*
G01X1354201Y-1752892D03*
G01X1592199Y-1712912D03*
G01X1354201Y-1712912D03*
G01X1592199Y-1672907D03*
G01X1354201Y-1672907D03*
G01X1592199Y-1632902D03*
G01X1354201Y-1632902D03*
G01X1592199Y-1592897D03*
G01X1354201Y-1592897D03*
G01X1592199Y-1552892D03*
G01X1354201Y-1552892D03*
G01X1592199Y-1512913D03*
G01X1354201Y-1512913D03*
G01X1592199Y-1472908D03*
G01X1354201Y-1472908D03*
G01X1592199Y-1432903D03*
G01X1354201Y-1432903D03*
G01X1592199Y-1392898D03*
G01X1354201Y-1392898D03*
G01X1592199Y-1352893D03*
G01X1354201Y-1352893D03*
G01X1592199Y-1312913D03*
G01X1354201Y-1312913D03*
G01X1592199Y-1272908D03*
G01X1354201Y-1272908D03*
G01X1592199Y-1232903D03*
G01X1354201Y-1232903D03*
G04 Pad End*

G04 Via Start*
G54D11*
G01X1719199Y-1222108D03*
G01X1769999Y-1160513D03*
G01X1719199Y-1803692D03*
G01X1998599Y-2119312D03*
G01X2023999Y-1977707D03*
G01X1998599Y-1861502D03*
G01X1515999Y-2072297D03*
G01X1820799Y-2522512D03*
G01X1227201Y-1843697D03*
G01X1430401Y-2057692D03*
G01X1227201Y-1222108D03*
G01X1354201Y-2041699D03*
G01X1100201Y-1745297D03*
G01X1176401Y-1759902D03*
G01X617601Y-1505293D03*
G01X1227201Y-1923707D03*
G01X855599Y-2431707D03*
G01X1719199Y-1563713D03*
G01X1769999Y-1498308D03*
G01X1998599Y-1407503D03*
G01X617601Y-1389113D03*
G01X1998599Y-1291298D03*
G01X973201Y-1777708D03*
G01X1024001Y-2232292D03*
G01X880999Y-2359292D03*
G01X1455801Y-1157313D03*
G01X1100201Y-1462113D03*
G01X541401Y-2020913D03*
G01X1541399Y-1161097D03*
G01X1998599Y-1149693D03*
G01X871601Y-1788503D03*
G01X1318996Y-1099707D03*
G04 Via End*

G04 Track Start*
G54D12*
G01X1592199Y-1272908D02*
G01X1668399Y-1272908D01*
G01X1719199Y-1222108D01*
G01X1592199Y-1312913D02*
G01X1719199Y-1312913D01*
G01X1795399Y-1236713D01*
G01X1795399Y-1185913D01*
G01X1769999Y-1160513D01*
G01X1592199Y-1752892D02*
G01X1668399Y-1752892D01*
G01X1719199Y-1803692D01*
G01X1592199Y-1712912D02*
G01X1719199Y-1712912D01*
G01X1795399Y-1789112D01*
G01X1795399Y-1839912D01*
G01X1975004Y-2019518D01*
G01X1975004Y-2095718D01*
G01X1998599Y-2119312D01*
G01X1592199Y-1672907D02*
G01X1744599Y-1672907D01*
G01X1834402Y-1762710D01*
G01X1834402Y-1788110D01*
G01X2023999Y-1977707D01*
G01X1592199Y-1632902D02*
G01X1769999Y-1632902D01*
G01X1998599Y-1861502D01*
G01X1592199Y-1792897D02*
G01X1515999Y-1792897D01*
G01X1490599Y-1818297D01*
G01X1490599Y-2046897D01*
G01X1515999Y-2072297D01*
G01X1592199Y-1912912D02*
G01X1693799Y-1912912D01*
G01X1783602Y-2002715D01*
G01X1783602Y-2485315D01*
G01X1820799Y-2522512D01*
G01X1354201Y-1792897D02*
G01X1278001Y-1792897D01*
G01X1227201Y-1843697D01*
G01X1354201Y-1752892D02*
G01X1430401Y-1752892D01*
G01X1455801Y-1778292D01*
G01X1455801Y-2032292D01*
G01X1430401Y-2057692D01*
G01X1354201Y-1272908D02*
G01X1278001Y-1272908D01*
G01X1227201Y-1222108D01*
G01X1592199Y-1992897D02*
G01X1592199Y-2094497D01*
G01X1541399Y-2145297D01*
G01X1439799Y-2145297D01*
G01X1354201Y-2059699D01*
G01X1354201Y-1992897D01*
G01X1354201Y-1592897D02*
G01X1252601Y-1592897D01*
G01X1100201Y-1745297D01*
G01X1354201Y-1632902D02*
G01X1278001Y-1632902D01*
G01X1188198Y-1722705D01*
G01X1188198Y-1748105D01*
G01X1176401Y-1759902D01*
G01X1354201Y-1352893D02*
G01X770001Y-1352893D01*
G01X617601Y-1505293D01*
G01X1354201Y-1872907D02*
G01X1278001Y-1872907D01*
G01X1227201Y-1923707D01*
G01X1592199Y-1872907D02*
G01X1719199Y-1872907D01*
G01X1896999Y-2050707D01*
G01X1896999Y-2533307D01*
G01X1846199Y-2584107D01*
G01X1007999Y-2584107D01*
G01X855599Y-2431707D01*
G01X1592199Y-1512913D02*
G01X1668399Y-1512913D01*
G01X1719199Y-1563713D01*
G01X1592199Y-1472908D02*
G01X1744599Y-1472908D01*
G01X1769999Y-1498308D01*
G01X1592199Y-1432903D02*
G01X1973199Y-1432903D01*
G01X1998599Y-1407503D01*
G01X1354201Y-1312913D02*
G01X693801Y-1312913D01*
G01X617601Y-1389113D01*
G01X1592199Y-1392898D02*
G01X1896999Y-1392898D01*
G01X1998599Y-1291298D01*
G01X1354201Y-1472908D02*
G01X1278001Y-1472908D01*
G01X973201Y-1777708D01*
G01X1354201Y-1952892D02*
G01X1278001Y-1952892D01*
G01X1188198Y-2042694D01*
G01X1188198Y-2068094D01*
G01X1024001Y-2232292D01*
G01X1592199Y-1952892D02*
G01X1668399Y-1952892D01*
G01X1693799Y-1978292D01*
G01X1693799Y-2054492D01*
G01X1424391Y-2323899D01*
G01X916391Y-2323899D01*
G01X880999Y-2359292D01*
G01X1354201Y-1512913D02*
G01X1430401Y-1512913D01*
G01X1455801Y-1487513D01*
G01X1455801Y-1157313D01*
G01X1100201Y-1462113D02*
G01X541401Y-2020913D01*
G01X1592199Y-1592897D02*
G01X1515999Y-1592897D01*
G01X1490599Y-1567497D01*
G01X1490599Y-1211897D01*
G01X1541399Y-1161097D01*
G01X1592199Y-1352893D02*
G01X1795399Y-1352893D01*
G01X1998599Y-1149693D01*
G01X1354201Y-1432903D02*
G01X1227201Y-1432903D01*
G01X871601Y-1788503D01*
G01X1592199Y-1232903D02*
G01X1617599Y-1207503D01*
G01X1617599Y-1156703D01*
G01X1541399Y-1080503D01*
G01X1439799Y-1080503D01*
G01X1354201Y-1166101D02*
G01X1354201Y-1232903D01*
G01X1369796Y-1150507D02*
G01X1318996Y-1099707D01*
G01X1439799Y-1080503D02*
G01X1369796Y-1150507D01*
G01X1354201Y-1166101D01*
G04 Track End*

M02*

