G04 Layer: BottomPasteMaskLayer*
G04 EasyEDA Pro v2.2.32.3, 2024-12-01 19:29:51*
G04 Gerber Generator version 0.3*
G04 Scale: 100 percent, Rotated: No, Reflected: No*
G04 Dimensions in millimeters*
G04 Leading zeros omitted, absolute positions, 3 integers and 5 decimals*
%FSLAX35Y35*%
%MOMM*%
%ADD10R,1.4X0.2*%
G75*


G04 Pad Start*
G54D10*
G01X1592199Y-1992897D03*
G01X1354201Y-1992897D03*
G01X1592199Y-1952892D03*
G01X1354201Y-1952892D03*
G01X1592199Y-1912912D03*
G01X1354201Y-1912912D03*
G01X1592199Y-1872907D03*
G01X1354201Y-1872907D03*
G01X1592199Y-1832902D03*
G01X1354201Y-1832902D03*
G01X1592199Y-1792897D03*
G01X1354201Y-1792897D03*
G01X1592199Y-1752892D03*
G01X1354201Y-1752892D03*
G01X1592199Y-1712912D03*
G01X1354201Y-1712912D03*
G01X1592199Y-1672907D03*
G01X1354201Y-1672907D03*
G01X1592199Y-1632902D03*
G01X1354201Y-1632902D03*
G01X1592199Y-1592897D03*
G01X1354201Y-1592897D03*
G01X1592199Y-1552892D03*
G01X1354201Y-1552892D03*
G01X1592199Y-1512913D03*
G01X1354201Y-1512913D03*
G01X1592199Y-1472908D03*
G01X1354201Y-1472908D03*
G01X1592199Y-1432903D03*
G01X1354201Y-1432903D03*
G01X1592199Y-1392898D03*
G01X1354201Y-1392898D03*
G01X1592199Y-1352893D03*
G01X1354201Y-1352893D03*
G01X1592199Y-1312913D03*
G01X1354201Y-1312913D03*
G01X1592199Y-1272908D03*
G01X1354201Y-1272908D03*
G01X1592199Y-1232903D03*
G01X1354201Y-1232903D03*
G04 Pad End*

M02*

